<?xml version="1.0" encoding="UTF-8" standalone="no"?>
<svg xmlns:svg="http://www.w3.org/2000/svg" xmlns="http://www.w3.org/2000/svg" width="35.433071" height="35.433071" id="svg2" version="1.1"><g id="icon"><path style="fill-opacity:1;stroke:none" d="m 27.46875,5.3125001 c -2.330311,0 -4.230589,1.8084717 -4.40625,4.09375 L 10.84375,14.375 c -0.776032,-0.669812 -1.7694392,-1.09375 -2.875,-1.09375 -2.4461431,0 -4.4375,1.991356 -4.4375,4.4375 0,2.446143 1.9913569,4.4375 4.4375,4.4375 1.078146,0 2.044433,-0.422187 2.8125,-1.0625 l 12.3125,5.34375 c 0.352636,2.093334 2.181385,3.6875 4.375,3.6875 2.446144,0 4.40625,-1.991357 4.40625,-4.4375 0,-2.446143 -1.960106,-4.4375 -4.40625,-4.4375 -1.23866,0 -2.352444,0.524157 -3.15625,1.34375 L 13.125,17.75 24.59375,13.0625 c 0.776374,0.671156 1.7682,1.125 2.875,1.125 2.446144,0 4.40625,-1.991357 4.40625,-4.4374999 0,-2.4461431 -1.960106,-4.4375 -4.40625,-4.4375 z" id="path2990-2"></path></g></svg>