<?xml version="1.0" encoding="UTF-8" standalone="no"?>
<svg xmlns:svg="http://www.w3.org/2000/svg" xmlns="http://www.w3.org/2000/svg" width="35.433071" height="35.433071" id="svg2" version="1.1"><g id="layer1" transform="translate(0,-1016.9291)"><path style="fill-opacity:1;stroke:none" d="M 27.46875 5.3125 C 25.138439 5.3125 23.238161 7.1209717 23.0625 9.40625 L 10.84375 14.375 C 10.067718 13.705188 9.0743108 13.28125 7.96875 13.28125 C 5.5226069 13.28125 3.53125 15.272606 3.53125 17.71875 C 3.53125 20.164893 5.5226069 22.15625 7.96875 22.15625 C 9.046896 22.15625 10.013183 21.734063 10.78125 21.09375 L 23.09375 26.4375 C 23.446386 28.530834 25.275135 30.125 27.46875 30.125 C 29.914894 30.125 31.875 28.133643 31.875 25.6875 C 31.875 23.241357 29.914894 21.25 27.46875 21.25 C 26.23009 21.25 25.116306 21.774157 24.3125 22.59375 L 13.125 17.75 L 24.59375 13.0625 C 25.370124 13.733656 26.36195 14.1875 27.46875 14.1875 C 29.914894 14.1875 31.875 12.196143 31.875 9.75 C 31.875 7.3038569 29.914894 5.3125 27.46875 5.3125 z " transform="translate(0,1016.9291)" id="path2990"></path></g></svg>